<svg width="171" height="36" viewBox="0 0 171 36" fill="none" xmlns="http://www.w3.org/2000/svg"> <path d="M25.3138 26.4515L17.9797 33.7856L14.8713 30.6772L22.2054 23.3431L25.3138 26.4515ZM22.2054 12.6772L17.9797 8.45147L5.3228 21.1084L2.21445 18L17.9797 2.23476L25.3138 9.56885L22.2054 12.6772ZM27.5485 26.4515L23.3228 22.2257L27.5485 18L23.3228 13.7946L27.5485 9.56885L18 0.0203157L13.7743 4.22573L9.54853 0L0 9.54854L4.22573 13.7743L0 18L4.22573 22.2257L0 26.4515L9.54853 36L13.7743 31.7743L18 36L27.5485 26.4515ZM47.5801 13.9977C47.5801 12.7381 48.7178 11.763 51.0745 11.763C52.9029 11.763 54.5079 12.6772 55.0767 13.6524L57.6163 12.3521C56.3363 9.75169 53.614 9 50.9729 9C47.8646 9.02032 44.4312 10.4424 44.4312 13.9165C44.4312 17.6953 47.6208 18.6298 51.0745 19.0361C53.3093 19.2799 54.9752 19.93 54.9752 21.5147C54.9752 23.3431 53.0858 24.0542 51.0948 24.0542C49.0429 24.0542 47.0926 23.2415 46.3409 21.3725L43.6795 22.754C44.9391 25.842 47.5801 26.8984 51.0339 26.8984C54.7923 26.8984 58.1242 25.2731 58.1242 21.5147C58.1242 17.4921 54.833 16.5779 51.3183 16.1309C49.307 15.8871 47.5801 15.4808 47.5801 13.9977ZM60.9075 26.4515H64.0768V9.56885H60.9075V26.4515ZM79.9639 26.4515H82.4628V9.56885H79.3747V20.9255L70.6795 9.56885H68.1806V26.4515H71.2686V15.2167L79.9639 26.4515ZM100.402 23.7901V16.6795H93.5147V19.5237H97.6185V22.5102C96.3589 23.5666 95.2618 23.8713 93.9819 23.8713C89.9797 23.8713 88.456 21.0068 88.456 18.2235C88.456 14.7494 90.5485 12.0068 93.9819 12.0068C95.3838 12.0068 96.9887 12.6163 98.0655 13.693L99.9549 11.6614C98.3093 9.95485 96.1354 9.08127 93.9819 9.08127C88.3138 9.08127 85.4898 13.4695 85.4898 18.2235C85.4898 22.6727 87.9481 26.8375 93.9819 26.8375C96.8262 26.8375 98.8172 25.6998 100.402 23.7901ZM118.097 19.2596V9.58917H114.989V19.2596C114.989 22.1648 113.526 23.912 110.946 23.912C108.366 23.912 106.659 22.2867 106.659 19.2596V9.58917H103.551V19.2596C103.551 24.3589 106.944 26.8172 110.905 26.8172C115.09 26.8172 118.097 24.2573 118.097 19.2596ZM131.242 26.4515L132.562 23.5056H124.517V9.56885H121.327V26.4515H131.242ZM146.743 20.2957H140.465L143.594 13.1038L146.743 20.2957ZM149.465 26.4515H152.939L145.361 9.56885H141.887L134.309 26.4515H137.763L139.205 23.2619H148.043L149.465 26.4515ZM163.28 17.9391H158.424V12.535H163.28C165.291 12.535 166.185 13.8962 166.185 15.237C166.185 16.5779 165.312 17.9391 163.28 17.9391ZM170.208 26.228L165.088 20.4582C168.298 19.8081 169.354 17.4718 169.354 15.1558C169.354 12.2302 167.262 9.58917 163.28 9.54854C160.598 9.54854 157.917 9.52822 155.255 9.52822V26.4515H158.445V20.8036H161.675L166.571 26.4515H170.208V26.228Z" fill="#e82828"></path> </svg>